<?xml version="1.0" encoding="UTF-8"?>
<svg viewBox="0 0 690 552" xmlns="http://www.w3.org/2000/svg">
 <defs>
  <filter id="a" x="-.25" y="-.25" width="1.5" height="1.5">
   <feGaussianBlur result="result8" stdDeviation="10"/>
   <feComposite in="SourceGraphic" in2="result8" operator="in" result="result6"/>
   <feComposite in2="result6" operator="in" result="result11"/>
   <feFlood flood-color="#ffde55" result="result10"/>
   <feBlend in="result11" in2="result10" result="result12"/>
   <feComposite in="result12" in2="SourceGraphic" operator="in" result="fbSourceGraphic"/>
   <feColorMatrix in="fbSourceGraphic" result="fbSourceGraphicAlpha" values="0 0 0 -1 0 0 0 0 -1 0 0 0 0 -1 0 0 0 0 1 0"/>
   <feGaussianBlur in="fbSourceGraphicAlpha" result="blur" stdDeviation="4,000000"/>
   <feColorMatrix result="bluralpha" values="1 0 0 0 0 0 1 0 0 0 0 0 1 0 0 0 0 0 0,500000 0"/>
   <feOffset dx="8,000000" dy="8,000000" in="bluralpha" result="offsetBlur"/>
   <feMerge>
    <feMergeNode in="offsetBlur"/>
    <feMergeNode in="fbSourceGraphic"/>
   </feMerge>
  </filter>
 </defs>
 <g transform="translate(0 -500.36)">
  <path transform="matrix(1.65 0 0 1.65 -136.85 -407.74)" d="m365.64 802.19 72.484 72.484 35.354-35.354-72.484-72.484 73.294-73.294-35.354-35.354-73.294 73.294-73.316-73.316-35.354 35.354 73.316 73.316-72.483 72.483 35.354 35.354 72.483-72.483z" fill="#d92a27" filter="url(#a)" stroke="#f00" stroke-width="5"/>
  <path d="m235.81 987.18-91.15 5e-3c-40.108 0-72.92-25.668-72.92-64.748v-285.05c0-43.331 32.644-67.387 72.92-67.387h278.42c37.384 0 66.291 33.032 66.291 67.387l-1.032 104.33 56.348-54.357-0.0728-51.081c-1e-5 -67.387-55.243-120.97-121.53-120.97h-278.42c-72.92 1.5e-4 -128.16 54.688-128.16 122.07v285.05c0 64.748 55.243 120.43 128.16 120.43l170.7 0.6612-56.348-56.348h-23.202z" stroke="#000"/>
 </g>
</svg>
