<svg xmlns="http://www.w3.org/2000/svg" xmlns:xlink="http://www.w3.org/1999/xlink" version="1.1" x="0px" y="0px" viewBox="0 0 100 125" style="enable-background:new 0 0 100 100;" xml:space="preserve"><g><path d="M100,5.474v7.494H42.342V5.474H100z M80,18.753H42.342v7.494H80V18.753z M30,53.521l-9.627,9.627l-5.643-5.643H7.494   V42.494h15.012v2.955L30,37.955V35H0v30h30V53.521z M20.373,50.066l-5.62-5.62l-5.299,5.3l10.919,10.918l18.251-18.25l-5.299-5.299   L20.373,50.066z M42.342,47.969H100v-7.494H42.342V47.969z M80,53.753H42.342v7.494H80V53.753z M42.342,82.969H100v-7.494H42.342   V82.969z M42.342,96.247H80v-7.494H42.342V96.247z M14.73,92.506H7.494V77.494h15.012v2.955L30,72.955V70H0v30h30V88.521   l-9.627,9.627L14.73,92.506z M20.373,85.066l-5.62-5.62l-5.299,5.299l10.919,10.92l18.251-18.252l-5.299-5.299L20.373,85.066z    M30,18.521l-9.627,9.627l-5.643-5.643H7.494V7.494h15.012v2.955L30,2.955V0H0v30h30V18.521z M20.373,15.066l-5.62-5.62   l-5.299,5.299l10.919,10.919L38.624,7.413l-5.299-5.298L20.373,15.066z"/></g><text x="0" y="115" fill="#000000" font-size="5px" font-weight="bold" font-family="'Helvetica Neue', Helvetica, Arial-Unicode, Arial, Sans-serif">Created by b farias</text><text x="0" y="120" fill="#000000" font-size="5px" font-weight="bold" font-family="'Helvetica Neue', Helvetica, Arial-Unicode, Arial, Sans-serif">from the Noun Project</text></svg>